# AST/ASF file generated using VICON BodyLanguage
# -----------------------------------------------
:version 1.10
:name VICON
:units
  mass 1.0
  length 0.45
  angle deg
:documentation
   .ast/.asf automatically generated from VICON data using
   VICON BodyBuilder and BodyLanguage model FoxedUp or BRILLIANT.MOD
:root
   order TX TY TZ RX RY RZ
   axis XYZ
   position 0 0 0  
   orientation 0 0 0 
:bonedata
  begin
     id 1 
     name lhipjoint
     direction 0.623415 -0.642378 0.445763 
     length 2.49859 
     axis 0 0 0  XYZ
  end
  begin
     id 2 
     name lfemur
     direction 0.34202 -0.939693 0  
     length 6.69689  
     axis 0 0 20  XYZ
    dof rx ry rz
    limits (-160.0 20.0)
           (-70.0 70.0)
           (-60.0 70.0)
  end
  begin
     id 3 
     name ltibia
     direction 0.34202 -0.939693 0   
     length 7.37574   
     axis 0 0 20   XYZ
    dof rx
    limits (-10.0 170.0)
  end
  begin
     id 4 
     name lfoot
     direction 0.084323 -0.231675 0.969132   
     length 2.09111   
     axis -90 7.62852e-016 20   XYZ
    dof rx rz
    limits (-45.0 90.0)
           (-70.0 20.0)
  end
  begin
     id 5 
     name ltoes
     direction 1.5357e-011 -4.21957e-011 1   
     length 1.04989   
     axis -90 7.62852e-016 20   XYZ
    dof rx
    limits (-90.0 20.0)
  end
  begin
     id 6 
     name rhipjoint
     direction -0.605402 -0.653903 0.45376   
     length 2.45455  
     axis 0 0 0  XYZ 
  end
  begin
     id 7 
     name rfemur
     direction -0.34202 -0.939693 0   
     length 6.64523   
     axis 0 0 -20   XYZ
    dof rx ry rz
    limits (-160.0 20.0)
           (-70.0 70.0)
           (-70.0 60.0)
  end
  begin
     id 8 
     name rtibia
     direction -0.34202 -0.939693 0   
     length 7.3339   
     axis 0 0 -20   XYZ
    dof rx
    limits (-10.0 170.0)
 end
 begin
     id 9 
     name rfoot
     direction -0.120854 -0.332043 0.93549   
     length 2.23135  
     axis -90 -7.62852e-016 -20   XYZ
    dof rx rz
    limits (-45.0 90.0)
           (-20.0 70.0)
  end
  begin
     id 10 
     name rtoes
     direction -1.53563e-011 -4.21914e-011 1   
     length 1.10614   
     axis -90 -7.62852e-016 -20   XYZ
    dof rx
    limits (-90.0 20.0)
  end
  begin
     id 11 
     name lowerback
     direction 0.0319682 0.998615 -0.0417941   
     length 2.02718   
     axis 0 0 0   XYZ
    dof rx ry rz
    limits (-20.0 45.0)
           (-30.0 30.0)
           (-30.0 30.0)
  end
  begin
     id 12 
     name upperback
     direction 7.63181e-005 0.995808 0.0914691   
     length 1.97539   
     axis 0 0 0   XYZ
    dof rx ry rz
    limits (-20.0 45.0)
           (-30.0 30.0)
           (-30.0 30.0)
  end
  begin
     id 13 
     name thorax
     direction -0.016423 0.993627 0.111514   
     length 2.00349   
     axis 0 0 0   XYZ
    dof rx ry rz
    limits (-20.0 45.0)
           (-30.0 30.0)
           (-30.0 30.0)
  end
  begin
     id 14 
     name lowerneck
     direction -0.174763 0.981668 -0.0760716   
     length 1.71436   
     axis 0 0 0   XYZ
    dof rx ry rz
    limits (-20.0 45.0)
           (-30.0 30.0)
           (-30.0 30.0)
  end
  begin
     id 15 
     name upperneck
     direction 0.345458 0.934587 -0.0848868   
     length 1.72805   
     axis 0 0 0   XYZ
    dof rx ry rz
    limits (-20.0 45.0)
           (-30.0 30.0)
           (-30.0 30.0)
  end
  begin
     id 16
     name head
     direction 0.13001 0.989848 -0.0574291  
     length 1.767  
     axis 0 0 0   XYZ
    dof rx ry rz
    limits (-20.0 45.0)
           (-30.0 30.0)
           (-30.0 30.0)
  end
  begin
     id 17 
     name lclavicle
     direction 0.952951 0.290122 0.0878234  
     length 3.54654  
     axis 0 0 0   XYZ
    dof ry rz
    limits (-20.0 10.0)
           (0.0 20.0)
  end
  begin
     id 18 
     name lhumerus
     direction 1 -4.48957e-011 -4.56525e-028   
     length 5.19807   
     axis 180 -30 -90   XYZ
    dof rx ry rz
    limits (-60.0 90.0)
           (-90.0 90.0)
           (-90.0 90.0)
  end
  begin
     id 19
     name lradius
     direction 1 -4.48979e-011 -2.0317e-027   
     length 3.0937   
     axis 180 -30 -90   XYZ
    dof rx
    limits (-10.0 170.0)
  end
  begin
     id 20
     name lwrist
     direction 1 -4.48953e-011 -3.05809e-027   
     length 1.54685   
     axis 8.48514e-016 90 90   XYZ
    dof ry
    limits (-180.0 0.0)
 end
  begin
     id 21 
     name lhand
     direction 1 -4.48952e-011 -6.11639e-027   
     length 0.672632   
     axis 3.9013e-015 90 90   XYZ
    dof rx rz
    limits (-90.0 90.0)
           (-45.0 45.0)
  end
  begin
     id 22 
     name lfingers
     direction 1 -4.48925e-011 -1.22426e-026   
     length 0.542293   
     axis 7.80276e-015 90 90   XYZ
    dof rx
    limits (0.0 90.0)
  end
  begin
     id 23
     name lthumb
     direction 0.707107 -6.3486e-011 0.707107   
     length 0.778628   
     axis -90 45 5.37419e-014   XYZ
    dof rx rz
    limits (-45.0 45.0)
           (-45.0 45.0)
  end
  begin
     id 24 
     name rclavicle
     direction -0.960732 0.273675 -0.0457849   
     length 3.52079  
     axis 0 0 0   XYZ 
    dof ry rz
    limits (-10.0 20.0)
           (-20.0 0.0)
  end
  begin
     id 25 
     name rhumerus
     direction -1 -4.48976e-011 -1.63613e-027  
     length 5.45222   
     axis 180 30 90   XYZ
    dof rx ry rz
    limits (-90.0 60.0)
           (-90.0 90.0)
           (-90.0 90.0)
  end
  begin
     id 26 
     name rradius
     direction -1 -4.48957e-011 -7.00033e-028   
     length 3.01284   
     axis 180 30 90   XYZ
    dof rx
    limits (-10.0 170.0)
  end
  begin
     id 27 
     name rwrist
     direction -1 -4.48983e-011 -3.05543e-027   
     length 1.50642   
     axis 8.48514e-016 -90 -90   XYZ
    dof ry
    limits (-180.0 0.0)
  end
  begin
     id 28
     name rhand
     direction -1 -4.48984e-011 -6.11072e-027   
     length 0.622296   
     axis 3.9013e-015 -90 -90   XYZ
    dof rx rz
    limits (-90.0 90.0)
           (-45.0 45.0)
  end
  begin
     id 29
     name rfingers
     direction -1 -4.48865e-011 -1.22637e-026   
     length 0.501711   
     axis 7.80276e-015 -90 -90   XYZ
    dof rx
    limits (0.0 90.0)
  end
  begin
     id 30
     name rthumb
     direction -0.707107 -6.34932e-011 0.707107   
     length 0.72036   
     axis -90 -45 -5.37419e-014   XYZ
    dof rx rz
    limits (-45.0 45.0)
           (-45.0 45.0)
  end
:hierarchy
  begin
    root lhipjoint rhipjoint lowerback
    lhipjoint lfemur
    lfemur ltibia
    ltibia lfoot
    lfoot ltoes
    rhipjoint rfemur
    rfemur rtibia
    rtibia rfoot
    rfoot rtoes
    lowerback upperback
    upperback thorax
    thorax lowerneck lclavicle rclavicle
    lowerneck upperneck
    upperneck head
    lclavicle lhumerus
    lhumerus lradius
    lradius lwrist
    lwrist lhand lthumb
    lhand lfingers
    rclavicle rhumerus
    rhumerus rradius
    rradius rwrist
    rwrist rhand rthumb
    rhand rfingers
  end

#!OML:ASF H:\Not Pregnant\Project 1\Capture day 1\Session 1\non-pregnant.ASF
:FULLY-SPECIFIED
:DEGREES
64
root -4.25623 14.8144 31.2555 -163.437 27.1538 -178.162
lowerback 2.10677 -0.186825 1.78325
upperback -6.18149 0.128865 0.41822
thorax -7.63935 0.0748708 -0.585362
lowerneck 12.8825 -12.8292 -29.4547
upperneck -11.5252 -18.4882 45.2772
head 3.4713 -10.5186 22.7666
rclavicle -3.82288e-014 -1.66109e-014
rhumerus -44.208 -4.26201 -69.9843
rradius 58.2435
rwrist -5.27301
rhand -22.4005 -15.6175
rfingers 7.12502
rthumb 4.022 -45.5592
lclavicle -3.82288e-014 -1.66109e-014
lhumerus -48.319 10.1462 68.2669
lradius 58.8982
lwrist 56.7621
lhand -27.3382 -13.1916
lfingers 7.12502
lthumb -0.746742 16.7869
rfemur -25.8306 38.229 2.54826
rtibia 45.5728
rfoot -29.4968 16.7063
rtoes -21.284
lfemur -42.972 -0.149382 -2.1105
ltibia 48.1051
lfoot -22.7711 0.834129
ltoes -42.6267
65
root -4.32308 14.8909 31.135 -163.368 27.9569 -178.154
lowerback 1.94166 -0.187575 1.76377
upperback -6.26028 0.135098 0.466212
thorax -7.62793 0.0839118 -0.524879
lowerneck 12.9194 -12.806 -29.5266
upperneck -11.2487 -18.5702 45.2154
head 3.56646 -10.5629 22.7298
rclavicle 2.22519e-015 -1.72065e-014
rhumerus -44.7077 -4.13434 -69.6792
rradius 58.2327
rwrist -5.64887
rhand -22.3275 -16.1215
rfingers 7.12502
rthumb 4.09256 -46.062
lclavicle 2.22519e-015 -1.72065e-014
lhumerus -48.0065 9.84046 68.206
lradius 59.6391
lwrist 56.4225
lhand -27.8655 -12.9494
lfingers 7.12502
lthumb -1.25599 17.0266
rfemur -25.9553 37.9259 2.09678
rtibia 45.5649
rfoot -27.3893 17.9577
rtoes -20.614
lfemur -41.9761 -0.0586029 -2.68621
ltibia 47.3241
lfoot -22.613 1.28863
ltoes -42.8256
66
root -4.3873 14.9702 31.0156 -163.329 28.7542 -178.157
lowerback 1.77641 -0.194539 1.74393
upperback -6.3246 0.130106 0.495592
thorax -7.60102 0.0863764 -0.482666
lowerneck 12.9618 -12.7661 -29.5377
upperneck -10.9527 -18.6128 45.1267
head 3.63245 -10.5844 22.6716
rclavicle 2.97688e-014 -2.7892e-014
rhumerus -45.1547 -4.0163 -69.4323
rradius 58.1829
rwrist -6.145
rhand -22.2969 -16.6795
rfingers 7.12502
rthumb 4.12209 -46.6194
lclavicle 2.97688e-014 -2.7892e-014
lhumerus -47.6993 9.50535 68.1098
lradius 60.4264
lwrist 55.9309
lhand -28.6617 -12.4955
lfingers 7.12502
lthumb -2.025 17.4746
rfemur -26.0879 37.4834 1.72272
rtibia 45.6635
rfoot -25.1034 19.0813
rtoes -19.7737
lfemur -40.9167 0.0753504 -3.28522
ltibia 46.4359
lfoot -22.4162 1.58397
ltoes -42.7816
67
root -4.44891 15.0522 30.8976 -163.314 29.5651 -178.172
lowerback 1.60901 -0.207819 1.70488
upperback -6.38585 0.114704 0.519201
thorax -7.56967 0.0845495 -0.434908
lowerneck 13.0004 -12.7062 -29.5199
upperneck -10.6124 -18.6265 45.0016
head 3.6849 -10.5873 22.5904
rclavicle -2.97835e-014 2.45996e-015
rhumerus -45.5689 -3.8622 -69.2345
rradius 58.1168
rwrist -6.76883
rhand -22.347 -17.348
rfingers 7.12502
rthumb 4.07365 -47.2888
lclavicle -2.97835e-014 2.45996e-015
lhumerus -47.4259 9.30546 67.8217
lradius 61.1882
lwrist 55.7889
lhand -28.8859 -12.0222
lfingers 7.12502
lthumb -2.24153 17.9458
rfemur -26.2443 36.9017 1.41336
rtibia 45.8637
rfoot -22.7407 20.0025
rtoes -18.988
lfemur -39.7948 0.236374 -3.90372
ltibia 45.4489
lfoot -22.1718 1.83787
ltoes -42.6597
68
root -4.50736 15.1346 30.7818 -163.337 30.3598 -178.22
lowerback 1.45414 -0.234158 1.62206
upperback -6.44684 0.0788917 0.536757
thorax -7.54551 0.0748627 -0.367433
lowerneck 12.9923 -12.6355 -29.4609
upperneck -10.1906 -18.6212 44.834
head 3.7437 -10.5701 22.4693
rclavicle 2.30777e-015 -5.889e-015
rhumerus -45.9605 -3.6939 -69.0662
rradius 58.0367
rwrist -7.49294
rhand -22.3933 -18.0379
rfingers 7.12502
rthumb 4.02896 -47.9796
lclavicle 2.30777e-015 -5.889e-015
lhumerus -47.1885 9.08434 67.5045
lradius 61.9243
lwrist 55.6316
lhand -29.0569 -11.6505
lfingers 7.12502
lthumb -2.40668 18.3157
rfemur -26.3964 36.1708 1.17899
rtibia 46.1655
rfoot -20.4297 20.6401
rtoes -18.4859
lfemur -38.6305 0.424058 -4.5516
ltibia 44.375
lfoot -21.8903 2.02174
ltoes -42.4623
69
root -4.56249 15.2163 30.668 -163.402 31.1428 -178.306
lowerback 1.29808 -0.267543 1.49486
upperback -6.50164 0.0296634 0.540197
thorax -7.51382 0.0604988 -0.288956
lowerneck 12.9694 -12.5654 -29.382
upperneck -9.72097 -18.6198 44.6425
head 3.81172 -10.5502 22.3243
rclavicle 2.35606e-014 -2.09469e-014
rhumerus -46.3365 -3.52441 -68.9368
rradius 57.9635
rwrist -8.32636
rhand -22.5036 -18.8102
rfingers 7.12502
rthumb 3.92247 -48.7539
lclavicle 2.35606e-014 -2.09469e-014
lhumerus -46.967 8.81271 67.1761
lradius 62.6095
lwrist 55.478
lhand -29.0947 -11.5082
lfingers 7.12502
lthumb -2.44313 18.4575
rfemur -26.5379 35.3006 1.01652
rtibia 46.5606
rfoot -18.3426 20.9301
rtoes -18.4109
lfemur -37.4242 0.619551 -5.22874
ltibia 43.2225
lfoot -21.5702 2.19004
ltoes -42.2662
70
root -4.61401 15.2969 30.5566 -163.49 31.9352 -178.418
lowerback 1.13627 -0.299508 1.31116
upperback -6.56106 -0.0200059 0.541291
thorax -7.48328 0.0494179 -0.1815
lowerneck 12.9481 -12.4945 -29.2979
upperneck -9.209 -18.6277 44.4208
head 3.88734 -10.5325 22.1562
rclavicle -6.1996e-014 -2.28105e-014
rhumerus -46.7174 -3.32897 -68.836
rradius 57.9161
rwrist -9.26793
rhand -22.703 -19.6608
rfingers 7.12502
rthumb 3.72987 -49.6079
lclavicle -6.1996e-014 -2.28105e-014
lhumerus -46.7747 8.48431 66.8515
lradius 63.2418
lwrist 55.3808
lhand -28.9399 -11.6303
lfingers 7.12502
lthumb -2.29365 18.3372
rfemur -26.6959 34.3183 0.923242
rtibia 47.0431
rfoot -16.69 20.7996
rtoes -18.9423
lfemur -36.1891 0.820489 -5.91637
ltibia 42.0057
lfoot -21.2087 2.35516
ltoes -42.0512
71
root -4.66192 15.3755 30.4475 -163.597 32.7346 -178.555
lowerback 0.954368 -0.329341 1.08869
upperback -6.62167 -0.0688756 0.530931
thorax -7.44186 0.0408807 -0.0646383
lowerneck 12.945 -12.4223 -29.223
upperneck -8.66554 -18.6471 44.1891
head 3.97255 -10.5209 21.9868
rclavicle -3.45746e-014 8.84592e-015
rhumerus -47.101 -3.13172 -68.7755
rradius 57.8922
rwrist -10.2838
rhand -22.978 -20.5518
rfingers 7.12502
rthumb 3.46437 -50.5034
lclavicle -3.45746e-014 8.84592e-015
lhumerus -46.6005 8.09002 66.5211
lradius 63.8338
lwrist 55.3612
lhand -28.6308 -11.9706
lfingers 7.12502
lthumb -1.99513 17.9999
rfemur -26.8743 33.2166 0.911744
rtibia 47.6027
rfoot -15.5473 20.2514
rtoes -19.77
lfemur -34.9401 1.03343 -6.61148
ltibia 40.7415
lfoot -20.8079 2.51027
ltoes -41.8377
72
root -4.70626 15.452 30.3405 -163.713 33.5494 -178.701
lowerback 0.742261 -0.348452 0.846589
upperback -6.67669 -0.104777 0.506362
thorax -7.37644 0.0395096 0.0471356
lowerneck 12.8904 -12.4068 -28.9609
upperneck -8.15847 -18.6533 44.226
head 3.98736 -10.4822 21.392
rclavicle -8.29437e-014 8.99501e-015
rhumerus -47.4856 -2.95125 -68.7533
rradius 57.8931
rwrist -11.33
rhand -23.3314 -21.4492
rfingers 7.12502
rthumb 3.12306 -51.4061
lclavicle -8.29437e-014 8.99501e-015
lhumerus -46.4154 7.63633 66.1786
lradius 64.4044
lwrist 55.4065
lhand -28.2101 -12.3734
lfingers 7.12502
lthumb -1.58879 17.6004
rfemur -27.0817 32.0111 0.99368
rtibia 48.2234
rfoot -14.9593 19.2375
rtoes -20.8173
lfemur -33.6903 1.25343 -7.29801
ltibia 39.455
lfoot -20.3635 2.67109
ltoes -41.6385
73
root -4.74712 15.5262 30.2361 -163.823 34.3847 -178.845
lowerback 0.491038 -0.362381 0.595618
upperback -6.73303 -0.132972 0.474264
thorax -7.28961 0.0425493 0.155166
lowerneck 13.0027 -12.3161 -28.9741
upperneck -7.62312 -18.693 44.018
head 4.07841 -10.4942 21.2894
rclavicle -7.12418e-014 -1.1368e-014
rhumerus -47.8733 -2.76426 -68.778
rradius 57.9139
rwrist -12.3828
rhand -23.7319 -22.2863
rfingers 7.12502
rthumb 2.73627 -52.2485
lclavicle -7.12418e-014 -1.1368e-014
lhumerus -46.2431 7.16356 65.7965
lradius 64.9771
lwrist 55.5014
lhand -27.7486 -12.7257
lfingers 7.12502
lthumb -1.14312 17.251
rfemur -27.3233 30.7188 1.1749
rtibia 48.8765
rfoot -14.8368 17.765
rtoes -21.9445
lfemur -32.4606 1.4983 -7.96769
ltibia 38.1702
lfoot -19.8732 2.82602
ltoes -41.4663
